<?xml version="1.0" standalone="no"?>
<!DOCTYPE svg PUBLIC "-//W3C//DTD SVG 20010904//EN"
 "http://www.w3.org/TR/2001/REC-SVG-20010904/DTD/svg10.dtd">
<svg version="1.0" xmlns="http://www.w3.org/2000/svg"
 width="700.000000pt" height="700.000000pt" viewBox="0 0 700.000000 700.000000"
 preserveAspectRatio="xMidYMid meet">
<metadata>
Created by potrace 1.11, written by Peter Selinger 2001-2013
</metadata>
<g transform="translate(0.000000,700.000000) scale(0.100000,-0.100000)"
fill="#000000" stroke="none">
<path d="M3875 5231 c-176 -177 -323 -321 -327 -321 -4 0 -40 -15 -80 -34
-143 -66 -193 -88 -258 -112 -36 -13 -74 -28 -85 -33 -155 -68 -732 -245 -900
-277 -11 -2 -38 -8 -60 -13 -63 -16 -217 -52 -245 -57 -109 -19 -490 -123
-545 -148 -195 -90 -224 -108 -298 -180 -56 -54 -119 -149 -146 -220 -11 -30
-39 -72 -69 -102 -52 -54 -106 -139 -136 -213 -9 -24 -44 -73 -76 -108 -107
-117 -169 -277 -186 -483 -5 -67 -4 -801 1 -904 14 -253 91 -378 232 -377 106
1 214 47 531 228 254 145 462 250 619 311 117 46 269 95 327 106 11 2 55 11
96 20 41 8 118 18 170 22 143 11 163 9 184 -11 8 -8 17 -15 21 -15 4 0 25 -13
48 -28 23 -16 49 -32 57 -35 8 -4 27 -15 42 -25 15 -9 155 -95 310 -191 156
-95 299 -184 318 -196 50 -33 448 -278 550 -338 l85 -51 105 -2 c110 -3 284
-12 360 -19 25 -3 69 -7 98 -10 28 -3 76 -7 105 -10 28 -3 72 -7 97 -10 25 -3
70 -7 100 -10 30 -3 71 -7 90 -10 19 -2 66 -7 103 -10 37 -4 78 -8 90 -11 38
-7 259 -7 327 0 59 7 110 18 150 33 8 4 17 7 20 8 3 0 23 10 45 22 87 46 173
161 204 275 8 27 17 48 21 48 4 0 30 22 57 49 52 51 103 137 124 209 8 29 25
53 54 77 75 61 148 195 170 310 4 22 9 49 11 60 8 47 15 127 20 234 3 63 14
150 25 195 11 45 22 92 25 106 3 14 10 43 15 65 5 22 12 50 14 61 3 12 18 78
35 147 25 103 29 139 25 208 -5 92 -20 217 -35 294 -6 28 -12 59 -14 70 -10
52 -58 203 -91 287 -257 647 -818 1141 -1525 1342 -190 54 -351 80 -570 91
l-115 6 -320 -320z"/>
</g>
</svg>
