<?xml version="1.0" encoding="utf-8"?>
<!-- Generator: Adobe Illustrator 19.0.0, SVG Export Plug-In . SVG Version: 6.00 Build 0)  -->
<svg version="1.1" id="Ebene_1" xmlns="http://www.w3.org/2000/svg" xmlns:xlink="http://www.w3.org/1999/xlink" x="0px" y="0px"
	 viewBox="-273 226.8 293.1 737.8" style="enable-background:new -273 226.8 293.1 737.8;" xml:space="preserve">
<g id="Ebene_2">
</g>
<g id="Ebene_1_1_">
	<g>
		<g>
			<path d="M-196.2,386.2l-27.6-58.8h-12.3v58.8h-27.8V234.1h47.7c37,0,44.2,29.3,44.2,43.2v6.6c0,10.9-4.1,30.6-22.9,39.5
				l29.9,62.8H-196.2z M-200,277.9c0-14.1-10.7-16.2-16.7-16.2h-19.4V300h19.9c6,0,16.2-1.9,16.2-16.2V277.9z"/>
			<path d="M-100.7,388.1c-36.8,0-45.9-28.8-45.9-44.2V234.1h27.8v109.8c0,14.3,12.2,16.5,18.2,16.5c5.8,0,17.9-2.1,17.9-16.5V234.1
				h27.8v110.1C-54.9,359.5-63.9,388.1-100.7,388.1z"/>
			<path d="M-200.2,577.4l-35.9-84.2v84.2h-27.8V425.3h28.2l36.7,85.9v-85.9h27.4v152.1H-200.2z"/>
			<path d="M-92.5,577.4h-48.3V425h47.4c36.8,0,43.8,29.5,43.8,43.4v65.4C-49.6,548.1-56.6,577.4-92.5,577.4z M-77,469.1
				c0-14.3-10.3-16.5-16.5-16.5h-19.9v97.2H-93c6,0,16-2.1,16-16.2V469.1z"/>
			<path d="M-220.5,770.5c-35.7,0-45.5-29.7-45.5-44.2v-68c0-14.1,9.2-43,45.9-43c35.3,0,45.7,30.3,45.7,47.2h-28
				c0-17.1-12.2-19.7-17.7-19.7c-6,0-18.4,1.9-18.4,15.8v67.5c0,14.3,12.4,16.2,18.4,16.2c5.6,0,17.7-1.9,17.7-16.2v-19.4h-22.2
				v-27.8h50.2v47.4C-174.4,741-184.6,770.5-220.5,770.5z"/>
			<path d="M-71.2,768.6l-9-34.8h-39.7l-9,34.8h-28.6l40-152.1h34.2l40.6,152.1H-71.2z M-99.8,657.7l-13.5,48.7H-87L-99.8,657.7z"/>
			<path d="M-200.2,959.8l-35.9-84.2v84.2h-27.8V807.6h28.2l36.7,85.9v-85.9h27.4v152.1L-200.2,959.8L-200.2,959.8z"/>
			<path d="M-97.5,961.7c-35.7,0-45.5-29.7-45.5-44.2v-68c0-14.1,9.2-43,45.9-43c35.3,0,45.7,30.3,45.7,47.2h-28
				c0-17.1-12.2-19.7-17.7-19.7c-6,0-18.4,1.9-18.4,15.8v67.5c0,14.3,12.4,16.2,18.4,16.2c5.6,0,17.7-1.9,17.7-16.2v-19.4h-22.2
				v-27.8h50.2v47.6C-51.3,932.2-61.6,961.7-97.5,961.7z"/>
		</g>
		<g>
			<path d="M-18.1,952.9h9.2v-12.8h4.6v12.8h15.5v4.5h-33.9V939h4.6L-18.1,952.9L-18.1,952.9z"/>
			<path d="M-22.7,910.3h33.9v4.5h-33.9L-22.7,910.3L-22.7,910.3z"/>
			<path d="M11.1,870l-23.5,9.8h23.5v4.5h-33.9v-5l23.9-9.9h-23.9v-4.5h33.9V870z"/>
			<path d="M11.1,823.7l-14.6,8.5l3.3,2.1h11.3v4.5h-33.9v-4.5h14.3c-4.8-3.3-9.6-6.7-14.3-10v-5.2l15.3,10.4l18.6-11L11.1,823.7
				L11.1,823.7z"/>
			<path d="M11.1,795.1h-33.9v-18.4h4.6v13.9h9.1v-12.8h4.6v12.8h11v-13.9h4.6L11.1,795.1L11.1,795.1z"/>
			<path d="M11.1,737.8l-23.5,9.8h23.5v4.5h-33.9v-5l23.9-9.9h-23.9v-4.5h33.9V737.8z"/>
			<path d="M11.1,689.9l-9.2,2.3v10l9.2,2.4v4.6l-33.9-8.6v-6.5l33.9-8.8V689.9z M-17.7,697.2l15.1,3.9v-7.7L-17.7,697.2z"/>
			<path d="M11.6,652.7c0,7.7-6.1,9.6-9.4,9.6h-24.9v-4.5H2.2c4.2,0,4.8-3.5,4.8-5.1c0-1.6-0.6-5.1-4.8-5.1h-24.9v-4.5H2.2
				C5.5,643.2,11.6,645,11.6,652.7z"/>
		</g>
		<g>
			<path d="M11.1,593.3H6.6v-6.4h-24.9l0.4,4.6h-4.4l-0.8-9H6.6V576h4.5V593.3z"/>
			<path d="M11.1,568.6H3.8c-3.3,0-5.8-1.9-7.7-4.2c-2.1-2.6-3.4-5.7-5.7-8.4c-1-1.2-2.6-1.6-4-1.6c-3.3,0-4.9,1.9-4.9,5
				c0,1.7,0.8,4.8,5.5,4.9v4.4c-3.4,0-9.9-2-9.9-9.3c0-5.5,3.8-9.4,9.4-9.4c2.9,0,5.5,1,7.4,3.1c2.3,2.6,3.7,6,6,8.9
				c1.2,1.4,2.4,2.4,4.4,2.4h2.6v-14.3h4.5v18.5H11.1z"/>
			<path d="M11.1,542.3H5v-5.9h6.1V542.3z"/>
			<path d="M-0.1,527.8h-4.3v-14.2h4.3V527.8z"/>
			<path d="M11.1,504.8H6.6v-6.4h-24.9l0.4,4.6h-4.4l-0.8-9H6.6v-6.5h4.5V504.8z"/>
			<path d="M11.1,465.6H1.9v14h-4.1l-20.5-7.4v-4.4l20.1,7.2v-9.4h-12.2v-4.5h25.9L11.1,465.6L11.1,465.6z"/>
			<path d="M11.1,453.2H5v-5.9h6.1V453.2z"/>
			<path d="M11.6,420.8c0,5.5-3.8,8.7-9.3,8.7V425c4,0,4.7-2.5,4.7-4.2c0-1.8-0.7-4.2-4.4-4.2h-20.7v9.6h-4.6v-14h25
				C8.1,412.1,11.6,415.2,11.6,420.8z"/>
			<path d="M11.6,394.4c0,7.7-6.1,9.6-9.4,9.6h-24.9v-4.5H2.2c4.2,0,4.8-3.5,4.8-5.1s-0.6-5.1-4.8-5.1h-24.9v-4.5H2.2
				C5.5,384.8,11.6,386.7,11.6,394.4z"/>
			<path d="M11.1,376.5h-33.9V372H6.5v-13.8h4.6V376.5z"/>
			<path d="M-22.7,347.8h33.9v4.5h-33.9L-22.7,347.8L-22.7,347.8z"/>
			<path d="M11.1,328.1H3.8c-3.3,0-5.8-1.9-7.7-4.2c-2.1-2.6-3.4-5.7-5.7-8.4c-1-1.2-2.6-1.6-4-1.6c-3.3,0-4.9,1.9-4.9,5
				c0,1.7,0.8,4.8,5.5,4.9v4.4c-3.4,0-9.9-2-9.9-9.3c0-5.5,3.8-9.4,9.4-9.4c2.9,0,5.5,1,7.4,3.1c2.3,2.6,3.7,6,6,8.9
				c1.2,1.4,2.4,2.4,4.4,2.4h2.6v-14.5h4.5v18.7H11.1z"/>
			<path d="M11.6,293.4c0,7.3-6.1,8.8-9.1,8.8H-14c-2.9,0-9-1.5-9-8.9s6-8.8,9-8.8H2.5C5.5,284.4,11.6,285.9,11.6,293.4z
				 M-13.9,288.8c-4,0-4.6,2.8-4.6,4.5c0,1.7,0.6,4.5,4.6,4.5H2.4c4,0,4.7-2.9,4.7-4.5s-0.6-4.5-4.7-4.5H-13.9z"/>
			<path d="M11.1,276.1H6.6v-6.4h-24.9l0.4,4.6h-4.4l-0.8-9H6.6v-6.5h4.5V276.1z"/>
			<path d="M11.6,241.8c0,7.7-6.4,9.9-10.1,9.9c-2.2,0-5.9-1.1-7.7-4.2c-1.7,2.5-4.8,3.9-7.3,3.9c-3.6,0-9.5-1.9-9.5-9.6
				c0-7.5,5.8-9.6,9.5-9.6c2.3,0,5.7,1.4,7.3,4.1c1.9-3.4,5.5-4.5,7.7-4.5C5.2,231.9,11.6,233.9,11.6,241.8z M-18.5,241.8
				c0,1.6,0.7,5.1,5,5.1c3.2,0,5.1-2.2,5.1-5.1c0-3-1.9-5.1-5.1-5.1C-17.8,236.7-18.5,240.2-18.5,241.8z M-4,241.8
				c0,3.1,2,5.4,5.5,5.4c4.8,0,5.6-3.7,5.6-5.4c0-1.7-0.8-5.4-5.6-5.4C-2,236.4-4,238.8-4,241.8z"/>
		</g>
	</g>
</g>
</svg>
