<?xml version="1.0" encoding="utf-8"?>
<!-- Generator: Adobe Illustrator 19.0.0, SVG Export Plug-In . SVG Version: 6.00 Build 0)  -->
<svg version="1.1" id="Ebene_1" xmlns="http://www.w3.org/2000/svg" xmlns:xlink="http://www.w3.org/1999/xlink" x="0px" y="0px"
	 viewBox="0 0 114 271.3" style="enable-background:new 0 0 114 271.3;" xml:space="preserve">
<style type="text/css">
	.st0{fill:#FFFFFF;}
</style>
<g id="XMLID_29_">
	<g id="XMLID_5205_">
		<g id="XMLID_3_">
			<path id="XMLID_4_" class="st0" d="M31.9,60.4L21.8,39.6h-4.5v20.9H7.1v-54h17.4c13.5,0,16.2,10.4,16.2,15.3v2.4
				c0,3.9-1.5,10.8-8.4,14l10.9,22.3H31.9z M30.5,22c0-5-3.9-5.8-6.1-5.8h-7.1v13.6h7.3c2.2,0,5.9-0.7,5.9-5.8V22z"/>
			<path id="XMLID_159_" class="st0" d="M66.8,61.1C53.4,61.1,50,50.9,50,45.4v-39h10.2v39c0,5.1,4.5,5.8,6.6,5.8
				c2.1,0,6.6-0.8,6.6-5.8v-39h10.2v39.1C83.5,50.9,80.3,61.1,66.8,61.1z"/>
			<path id="XMLID_161_" class="st0" d="M30.4,128.3L17.3,98.4v29.9H7.1v-54h10.3l13.4,30.5V74.3h10v54H30.4z"/>
			<path id="XMLID_163_" class="st0" d="M69.8,128.3H52.1V74.2h17.3c13.4,0,16,10.5,16,15.4v23.2C85.5,117.9,82.9,128.3,69.8,128.3z
				 M75.5,89.8c0-5.1-3.7-5.8-6-5.8h-7.3v34.5h7.4c2.2,0,5.9-0.8,5.9-5.8V89.8z"/>
			<path id="XMLID_166_" class="st0" d="M23,196.8c-13,0-16.6-10.5-16.6-15.7V157c0-5,3.4-15.2,16.8-15.2
				c12.9,0,16.7,10.8,16.7,16.8H29.6c0-6.1-4.5-7-6.5-7c-2.2,0-6.7,0.7-6.7,5.6v24c0,5.1,4.5,5.8,6.7,5.8c2,0,6.5-0.7,6.5-5.8v-6.9
				h-8.1v-9.9h18.4v16.8C39.9,186.4,36.1,196.8,23,196.8z"/>
			<path id="XMLID_168_" class="st0" d="M77.6,196.2l-3.3-12.4H59.8l-3.3,12.4H46l14.6-54h12.5l14.8,54H77.6z M67.1,156.8l-4.9,17.3
				h9.6L67.1,156.8z"/>
			<path id="XMLID_171_" class="st0" d="M30.4,264l-13.1-29.9V264H7.1v-54h10.3l13.4,30.5V210h10v54H30.4z"/>
			<path id="XMLID_173_" class="st0" d="M68,264.7c-13,0-16.6-10.5-16.6-15.7v-24.1c0-5,3.4-15.2,16.8-15.2
				c12.9,0,16.7,10.8,16.7,16.8H74.6c0-6.1-4.5-7-6.5-7c-2.2,0-6.7,0.7-6.7,5.6v24c0,5.1,4.5,5.8,6.7,5.8c2,0,6.5-0.7,6.5-5.8v-6.9
				h-8.1v-9.9h18.4v16.8C84.9,254.2,81.1,264.7,68,264.7z"/>
		</g>
	</g>
	<g id="XMLID_178_">
		<path id="XMLID_5212_" class="st0" d="M107.5,259l-3.1,0.8v3.2l3.1,0.8v1.5l-11.3-2.8v-2.1l11.3-2.8V259z M97.8,261.3l5,1.3v-2.5
			L97.8,261.3z"/>
		<path id="XMLID_5215_" class="st0" d="M107.5,251l-4.6,2v1.4h4.6v1.5H96.2v-3.2c0-2.5,2.1-3,3.1-3h0.5c0.8,0,2.4,0.3,2.9,1.8
			l4.8-2.2V251z M99.3,251.2c-1.4,0-1.6,1-1.6,1.5v1.7h3.6v-1.8c0-0.6-0.2-1.5-1.6-1.5H99.3z"/>
		<path id="XMLID_5218_" class="st0" d="M107.5,247.4H96.2v-1.7l5.5-2.2l-5.5-2.1v-1.7h11.3v1.5h-8l4.6,1.8v1.2l-4.6,1.8h8V247.4z"
			/>
		<path id="XMLID_5220_" class="st0" d="M107.6,234.4c0,2.4-2.1,3.1-3.1,3.1h-5.3c-1,0-3.1-0.6-3.1-3.1c0-2.4,2-3.1,3.1-3.1v1.5
			c-1.3,0-1.6,1.1-1.6,1.6c0,0.5,0.2,1.7,1.6,1.7h5.3c1.4,0,1.6-1.1,1.6-1.7c0-0.5-0.2-1.6-1.6-1.6h-1.9v1.8h-1.5v-3.3h3.4
			C105.5,231.3,107.6,232,107.6,234.4z"/>
		<path id="XMLID_5222_" class="st0" d="M107.5,223.7l-3.1,0.8v3.2l3.1,0.8v1.5l-11.3-2.8V225l11.3-2.8V223.7z M97.8,226l5,1.3v-2.5
			L97.8,226z"/>
		<path id="XMLID_5225_" class="st0" d="M107.5,215.7l-4.6,2v1.4h4.6v1.5H96.2v-3.2c0-2.5,2.1-3,3.1-3h0.5c0.8,0,2.4,0.3,2.9,1.8
			l4.8-2.2V215.7z M99.3,215.9c-1.4,0-1.6,1-1.6,1.5v1.7h3.6v-1.8c0-0.6-0.2-1.5-1.6-1.5H99.3z"/>
		<path id="XMLID_5228_" class="st0" d="M97.7,209h9.8v1.5h-9.8v2.5h-1.6v-6.5h1.6V209z"/>
		<path id="XMLID_5231_" class="st0" d="M107.6,202.1c0,1.9-1.4,3.2-3.1,3.2v-1.5c1,0,1.6-0.7,1.6-1.7c0-1.1-0.7-1.9-1.6-1.9
			c-0.7,0-1.2,0.4-1.5,0.9c-0.3,0.4-0.7,1.1-1.3,2.5c-0.4,0.9-1.4,1.5-2.6,1.5c-1.7,0-2.9-1.2-2.9-3c0-1.9,1.3-3.1,3.1-3.1v1.5
			c-1,0-1.6,0.7-1.6,1.7c0,0.9,0.5,1.6,1.5,1.6c0.5,0,1-0.3,1.3-0.8c0.5-0.9,0.8-1.6,1.3-2.3c0.6-1.1,1.7-1.7,2.9-1.7
			C106.3,198.8,107.6,200.3,107.6,202.1z"/>
		<path id="XMLID_5233_" class="st0" d="M97.7,193.7h9.8v1.5h-9.8v2.5h-1.6v-6.5h1.6V193.7z"/>
		<path id="XMLID_5235_" class="st0" d="M107.5,184.7l-4.6,2v1.4h4.6v1.5H96.2v-3.2c0-2.5,2.1-3,3.1-3h0.5c0.8,0,2.4,0.3,2.9,1.8
			l4.8-2.2V184.7z M99.3,184.9c-1.4,0-1.6,1-1.6,1.5v1.7h3.6v-1.8c0-0.6-0.2-1.5-1.6-1.5H99.3z"/>
		<path id="XMLID_5238_" class="st0" d="M107.5,175.7l-3.1,0.8v3.2l3.1,0.8v1.5l-11.3-2.8V177l11.3-2.8V175.7z M97.8,178.1l5,1.3
			v-2.5L97.8,178.1z"/>
		<path id="XMLID_5241_" class="st0" d="M106,169.4c0-0.6-0.2-1.5-1.6-1.5h-0.8c-1.4,0-1.6,0.8-1.6,1.4v0.7h-1.5v-0.6
			c0-0.7-0.5-1-1.3-1c-1.4,0-1.6,0.9-1.6,1.5c0,0.5,0.2,1.5,1.6,1.5h8.3v1.4h-8.3c-1,0-3-0.5-3-3c0-2.4,2.1-2.9,3.1-2.9
			c0.7,0,1.6,0.3,2,0.9c0.5-1,1.8-1.3,2.4-1.3h0.8c1,0,3.1,0.5,3.1,2.9v1.1H106V169.4z"/>
		<path id="XMLID_5243_" class="st0" d="M107.5,164.3H96.2v-6h1.5v4.5h3v-4.2h1.5v4.2h3.7v-4.5h1.5V164.3z"/>
		<path id="XMLID_5245_" class="st0" d="M100.6,140.9c0.4-1.7,1.8-2.1,2.8-2.1h1.1c1,0,3.1,0.7,3.1,3c0,2.4-1.9,3-3,3v-1.4
			c1.3,0,1.5-1,1.5-1.6c0-0.6-0.2-1.6-1.6-1.6h-1.1c-1.3,0-1.5,1.1-1.5,1.6v0.8h-1.2l-3.1-1.9v3.7h-1.5V139h1.4L100.6,140.9z"/>
		<path id="XMLID_5247_" class="st0" d="M107.5,137.3H106v-2.1h-8.3l0.1,1.5h-1.5l-0.3-2.9h9.9v-2.1h1.5V137.3z"/>
		<path id="XMLID_5249_" class="st0" d="M107.5,130h-2v-1.9h2V130z"/>
		<path id="XMLID_5251_" class="st0" d="M107.6,120.6c0,1.8-1.3,2.8-3.1,2.8V122c1.3,0,1.6-0.8,1.6-1.4c0-0.6-0.2-1.4-1.5-1.4h-6.9
			v3.1h-1.5v-4.5h8.4C106.5,117.8,107.6,118.8,107.6,120.6z"/>
		<path id="XMLID_5328_" class="st0" d="M107.5,110.5l-3.1,0.8v3.2l3.1,0.8v1.5l-11.3-2.8v-2.1l11.3-2.8V110.5z M97.8,112.8l5,1.3
			v-2.5L97.8,112.8z"/>
		<path id="XMLID_5331_" class="st0" d="M107.5,102.9l-7.9,3.2h7.9v1.5H96.2V106l8-3.2h-8v-1.4h11.3V102.9z"/>
		<path id="XMLID_5333_" class="st0" d="M103.7,95.6h-1.4v-6.4h1.4V95.6z"/>
		<path id="XMLID_5335_" class="st0" d="M107.6,80.7c0,2.4-2,2.8-3,2.8h-5.5c-1,0-3-0.5-3-2.9c0-2.4,2-2.9,3-2.9h5.5
			C105.6,77.8,107.6,78.3,107.6,80.7z M99.1,79.2c-1.3,0-1.5,0.9-1.5,1.4c0,0.5,0.2,1.5,1.5,1.5h5.5c1.3,0,1.6-0.9,1.6-1.5
			c0-0.5-0.2-1.4-1.6-1.4H99.1z"/>
		<path id="XMLID_5338_" class="st0" d="M107.5,75.9H105c-1.1,0-1.9-0.6-2.6-1.4c-0.7-0.8-1.1-1.9-1.9-2.7c-0.3-0.4-0.9-0.5-1.3-0.5
			c-1.1,0-1.7,0.6-1.7,1.6c0,0.5,0.3,1.6,1.8,1.6v1.4c-1.1,0-3.3-0.7-3.3-3c0-1.8,1.3-3,3.1-3c1,0,1.8,0.3,2.5,1
			c0.8,0.9,1.2,2,2,2.9c0.4,0.5,0.8,0.8,1.5,0.8h0.9v-4.6h1.5V75.9z"/>
		<path id="XMLID_5340_" class="st0" d="M107.5,67.9h-2V66h2V67.9z"/>
		<path id="XMLID_5342_" class="st0" d="M97.7,58.9h3.1v-4.2h1.5v4.2h5.2v1.5H96.2v-6h1.5V58.9z"/>
		<path id="XMLID_5344_" class="st0" d="M107.5,52.9H96.2v-6h1.5v4.5h3v-4.2h1.5v4.2h3.7v-4.5h1.5V52.9z"/>
		<path id="XMLID_5346_" class="st0" d="M107.5,42.1v3.3H96.2v-3.2c0-2.5,2-2.9,3-2.9h0.2c0.6,0,1.7,0.2,2.3,1
			c0.6-0.9,1.8-1.2,2.4-1.2h0.4C105.4,39.1,107.5,39.6,107.5,42.1z M99.2,40.7c-1.4,0-1.5,0.9-1.5,1.4v1.7h3.2v-1.8
			c0-0.6-0.2-1.4-1.5-1.4H99.2z M104,40.5c-1.4,0-1.6,0.9-1.6,1.5v1.9h3.5v-1.8c0-0.6-0.2-1.5-1.6-1.5H104z"/>
		<path id="XMLID_5350_" class="st0" d="M107.5,34.1H105c-1.1,0-1.9-0.6-2.6-1.4c-0.7-0.8-1.1-1.9-1.9-2.7c-0.3-0.4-0.9-0.5-1.3-0.5
			c-1.1,0-1.7,0.6-1.7,1.6c0,0.5,0.3,1.6,1.8,1.6v1.4c-1.1,0-3.3-0.7-3.3-3c0-1.8,1.3-3,3.1-3c1,0,1.8,0.3,2.5,1
			c0.8,0.9,1.2,2,2,2.9c0.4,0.5,0.8,0.8,1.5,0.8h0.9V28h1.5V34.1z"/>
		<path id="XMLID_5352_" class="st0" d="M107.6,23.6c0,2.4-2,2.8-3,2.8h-5.5c-1,0-3-0.5-3-2.9c0-2.4,2-2.9,3-2.9h5.5
			C105.6,20.7,107.6,21.2,107.6,23.6z M99.1,22.1c-1.3,0-1.5,0.9-1.5,1.4c0,0.5,0.2,1.5,1.5,1.5h5.5c1.3,0,1.6-0.9,1.6-1.5
			c0-0.5-0.2-1.4-1.6-1.4H99.1z"/>
		<path id="XMLID_5355_" class="st0" d="M107.5,19.1H106v-2.1h-8.3l0.1,1.5h-1.5l-0.3-2.9h9.9v-2.1h1.5V19.1z"/>
		<path id="XMLID_5357_" class="st0" d="M107.6,9.1c0,2.3-2.2,2.9-3.4,2.9v-1.4c1.6,0,1.9-0.9,1.9-1.5c0-0.6-0.2-1.6-1.6-1.6h-1.6
			c0.3,0.4,0.6,1.1,0.6,1.6c0,2.4-2,3-3,3h-1.4c-1,0-3-0.6-3-3c0-2.4,2-3,3-3h5.5C105.6,6.1,107.6,6.7,107.6,9.1z M99.1,7.5
			c-1.3,0-1.5,1-1.5,1.6c0,0.5,0.2,1.6,1.5,1.6h1.3c1.4,0,1.6-1.1,1.6-1.6c0-0.5-0.2-1.6-1.6-1.6H99.1z"/>
	</g>
</g>
</svg>
